<svg xmlns="http://www.w3.org/2000/svg" width="92" height="92" viewBox="0 0 92 92">
  <g id="Group_22979" data-name="Group 22979" transform="translate(9326 21330)">
    <circle id="Ellipse_42" data-name="Ellipse 42" cx="46" cy="46" r="46" transform="translate(-9326 -21330)" fill="#627cbf"/>
    <g id="Group_22970" data-name="Group 22970" transform="translate(-9306.5 -21310.5)">
      <g id="Group_22969" data-name="Group 22969" transform="translate(1.5 1.5)">
        <path id="Path_84388" data-name="Path 84388" d="M9.6,6.8H4.972A3.5,3.5,0,0,0,1.5,10.272V39.418A3.5,3.5,0,0,0,4.972,42.89H24.964" transform="translate(-1.5 -1.223)" fill="none" stroke="#fff" stroke-linecap="round" stroke-linejoin="round" stroke-miterlimit="10" stroke-width="2"/>
        <path id="Path_84389" data-name="Path 84389" d="M23.5,6.8h4.735a3.5,3.5,0,0,1,3.472,3.472V24.056" transform="translate(-0.352 -1.223)" fill="none" stroke="#fff" stroke-linecap="round" stroke-linejoin="round" stroke-miterlimit="10" stroke-width="2"/>
        <path id="Path_84390" data-name="Path 84390" d="M9.43,10.1H4.8V39.246H23.634" transform="translate(-1.328 -1.051)" fill="none" stroke="#fff" stroke-linecap="round" stroke-linejoin="round" stroke-miterlimit="10" stroke-width="2"/>
        <path id="Path_84391" data-name="Path 84391" d="M23.5,10.1h4.735V25.673" transform="translate(-0.352 -1.051)" fill="none" stroke="#fff" stroke-linecap="round" stroke-linejoin="round" stroke-miterlimit="10" stroke-width="2"/>
        <path id="Path_84392" data-name="Path 84392" d="M24.246,11.334H9.2V6.7a2.111,2.111,0,0,1,2.1-2.1H22.142a2.111,2.111,0,0,1,2.1,2.1Z" transform="translate(-1.098 -1.338)" fill="none" stroke="#fff" stroke-linecap="round" stroke-linejoin="round" stroke-miterlimit="10" stroke-width="2"/>
        <path id="Path_84393" data-name="Path 84393" d="M12.9,4.762v-2.1A1.168,1.168,0,0,1,14.057,1.5H19A1.168,1.168,0,0,1,20.16,2.657v2.1" transform="translate(-0.905 -1.5)" fill="none" stroke="#fff" stroke-linecap="round" stroke-linejoin="round" stroke-miterlimit="10" stroke-width="2"/>
        <g id="Group_22968" data-name="Group 22968" transform="translate(8.418 16.099)">
          <path id="Path_84394" data-name="Path 84394" d="M9.5,16.8H23.915" transform="translate(-9.5 -16.8)" fill="none" stroke="#fff" stroke-linecap="round" stroke-linejoin="round" stroke-miterlimit="10" stroke-width="2"/>
          <path id="Path_84395" data-name="Path 84395" d="M14.9,21h8.733" transform="translate(-9.218 -16.581)" fill="none" stroke="#fff" stroke-linecap="round" stroke-linejoin="round" stroke-miterlimit="10" stroke-width="2"/>
          <path id="Path_84396" data-name="Path 84396" d="M9.5,21h2.525" transform="translate(-9.5 -16.581)" fill="none" stroke="#fff" stroke-linecap="round" stroke-linejoin="round" stroke-miterlimit="10" stroke-width="2"/>
          <path id="Path_84397" data-name="Path 84397" d="M20.4,25.2h2.946" transform="translate(-8.931 -16.362)" fill="none" stroke="#fff" stroke-linecap="round" stroke-linejoin="round" stroke-miterlimit="10" stroke-width="2"/>
          <path id="Path_84398" data-name="Path 84398" d="M9.5,25.2h8.312" transform="translate(-9.5 -16.362)" fill="none" stroke="#fff" stroke-linecap="round" stroke-linejoin="round" stroke-miterlimit="10" stroke-width="2"/>
          <path id="Path_84399" data-name="Path 84399" d="M9.5,29.4H20.653" transform="translate(-9.5 -16.142)" fill="none" stroke="#fff" stroke-linecap="round" stroke-linejoin="round" stroke-miterlimit="10" stroke-width="2"/>
          <path id="Path_84400" data-name="Path 84400" d="M18.2,33.6h.316" transform="translate(-9.046 -15.923)" fill="none" stroke="#fff" stroke-linecap="round" stroke-linejoin="round" stroke-miterlimit="10" stroke-width="2"/>
          <path id="Path_84401" data-name="Path 84401" d="M9.5,33.6h6" transform="translate(-9.5 -15.923)" fill="none" stroke="#fff" stroke-linecap="round" stroke-linejoin="round" stroke-miterlimit="10" stroke-width="2"/>
        </g>
      </g>
      <circle id="Ellipse_44" data-name="Ellipse 44" cx="11.048" cy="11.048" r="11.048" transform="translate(26.227 26.227)" fill="none" stroke="#fff" stroke-linecap="round" stroke-linejoin="round" stroke-miterlimit="10" stroke-width="2"/>
      <circle id="Ellipse_45" data-name="Ellipse 45" cx="13.983" cy="13.983" r="13.983" transform="translate(23.534 23.534)" fill="none" stroke="#fff" stroke-linecap="round" stroke-linejoin="round" stroke-miterlimit="10" stroke-width="2"/>
      <path id="Path_84402" data-name="Path 84402" d="M35.5,25v1.894" transform="translate(1.775 1.227)" fill="none" stroke="#fff" stroke-linecap="round" stroke-linejoin="round" stroke-miterlimit="10" stroke-width="2"/>
      <path id="Path_84403" data-name="Path 84403" d="M35.5,44.3v1.894" transform="translate(1.775 2.234)" fill="none" stroke="#fff" stroke-linecap="round" stroke-linejoin="round" stroke-miterlimit="10" stroke-width="2"/>
      <path id="Path_84404" data-name="Path 84404" d="M46.194,35.5H44.3" transform="translate(2.234 1.775)" fill="none" stroke="#fff" stroke-linecap="round" stroke-linejoin="round" stroke-miterlimit="10" stroke-width="2"/>
      <path id="Path_84405" data-name="Path 84405" d="M26.894,35.5H25" transform="translate(1.227 1.775)" fill="none" stroke="#fff" stroke-linecap="round" stroke-linejoin="round" stroke-miterlimit="10" stroke-width="2"/>
      <path id="Path_84406" data-name="Path 84406" d="M26.4,40.847l1.578-.947" transform="translate(1.3 2.004)" fill="none" stroke="#fff" stroke-linecap="round" stroke-linejoin="round" stroke-miterlimit="10" stroke-width="2"/>
      <path id="Path_84407" data-name="Path 84407" d="M43.1,31.247l1.684-.947" transform="translate(2.172 1.503)" fill="none" stroke="#fff" stroke-linecap="round" stroke-linejoin="round" stroke-miterlimit="10" stroke-width="2"/>
      <path id="Path_84408" data-name="Path 84408" d="M30.3,26.4l.947,1.684" transform="translate(1.503 1.3)" fill="none" stroke="#fff" stroke-linecap="round" stroke-linejoin="round" stroke-miterlimit="10" stroke-width="2"/>
      <path id="Path_84409" data-name="Path 84409" d="M39.9,43.1l.947,1.684" transform="translate(2.004 2.172)" fill="none" stroke="#fff" stroke-linecap="round" stroke-linejoin="round" stroke-miterlimit="10" stroke-width="2"/>
      <path id="Path_84410" data-name="Path 84410" d="M44.784,40.847,43.1,39.9" transform="translate(2.172 2.004)" fill="none" stroke="#fff" stroke-linecap="round" stroke-linejoin="round" stroke-miterlimit="10" stroke-width="2"/>
      <path id="Path_84411" data-name="Path 84411" d="M27.978,31.247,26.4,30.3" transform="translate(1.3 1.503)" fill="none" stroke="#fff" stroke-linecap="round" stroke-linejoin="round" stroke-miterlimit="10" stroke-width="2"/>
      <path id="Path_84412" data-name="Path 84412" d="M30.3,44.784l.947-1.684" transform="translate(1.503 2.172)" fill="none" stroke="#fff" stroke-linecap="round" stroke-linejoin="round" stroke-miterlimit="10" stroke-width="2"/>
      <path id="Path_84413" data-name="Path 84413" d="M39.9,28.084l.947-1.684" transform="translate(2.004 1.3)" fill="none" stroke="#fff" stroke-linecap="round" stroke-linejoin="round" stroke-miterlimit="10" stroke-width="2"/>
      <circle id="Ellipse_46" data-name="Ellipse 46" cx="0.947" cy="0.947" r="0.947" transform="translate(36.328 36.328)" fill="none" stroke="#fff" stroke-linecap="round" stroke-linejoin="round" stroke-miterlimit="10" stroke-width="2"/>
      <path id="Path_84414" data-name="Path 84414" d="M35.5,34.72V32.3" transform="translate(1.775 1.608)" fill="none" stroke="#fff" stroke-linecap="round" stroke-linejoin="round" stroke-miterlimit="10" stroke-width="2"/>
      <path id="Path_84415" data-name="Path 84415" d="M34.6,32.547l.947-.947.947.947" transform="translate(1.728 1.571)" fill="none" stroke="#fff" stroke-linecap="round" stroke-linejoin="round" stroke-miterlimit="10" stroke-width="2"/>
      <path id="Path_84416" data-name="Path 84416" d="M36.6,35.5h5.261" transform="translate(1.832 1.775)" fill="none" stroke="#fff" stroke-linecap="round" stroke-linejoin="round" stroke-miterlimit="10" stroke-width="2"/>
      <path id="Path_84417" data-name="Path 84417" d="M41.4,34.6l.947.947-.947.947" transform="translate(2.083 1.728)" fill="none" stroke="#fff" stroke-linecap="round" stroke-linejoin="round" stroke-miterlimit="10" stroke-width="2"/>
    </g>
  </g>
</svg>
