<svg xmlns="http://www.w3.org/2000/svg" width="109.763" height="109.764" viewBox="0 0 109.763 109.764">
  <g id="g-root-ic_incr_8zmu35uaolc5-stroke" transform="translate(1.281 1.281)">
    <g id="ic_incr_8zmu35uaolc5-stroke" transform="translate(0 0)">
      <g id="Group_23568" data-name="Group 23568">
        <path id="Path_84512" data-name="Path 84512" d="M21.275,89.736v26.248H52.844V89.736M10,10m2.255,87.944,21.783-19.8a4.51,4.51,0,0,1,6.043,0l21.783,19.8M43.824,12.255h22.55V34.8M12.255,66.374,66.374,12.255m49.609,103.728H52.844m4.51-38.334V48.334a2.255,2.255,0,0,1,2.255-2.255h18.04A2.255,2.255,0,0,1,79.9,48.334v67.649m13.53,0V19.02a2.255,2.255,0,0,1,2.255-2.255h18.04a2.255,2.255,0,0,1,2.255,2.255v96.963" transform="translate(-10 -10)" fill="none" stroke="#ef6000" stroke-linecap="round" stroke-linejoin="round" stroke-width="5" fill-rule="evenodd"/>
      </g>
    </g>
  </g>
</svg>
